<?xml version="1.0" encoding="UTF-8"?>
<svg fill="#770000" xmlns="http://www.w3.org/2000/svg" id="Layer_1" data-name="Layer 1" viewBox="0 0 24 24">
  <path d="m22.83,15.206c-.565-1.888-2.346-3.206-4.331-3.206-2.134,0-3.947,1.442-4.415,3.534l-1.036,5.273c-.058.293.019.597.209.828s.474.365.772.365h2.245c.126,1.123,1.068,2,2.225,2s2.099-.877,2.225-2h2.241c.299,0,.583-.134.773-.366.19-.231.266-.536.208-.829l-1.117-5.599Zm1.17-7.206H0v-3c0-1.654,1.346-3,3-3h3V0h2v2h8V0h2v2h3c1.654,0,3,1.346,3,3v3Zm-12.287,14.906c.572.695,1.417,1.094,2.317,1.094H0v-14h18.499c-3.077,0-5.695,2.096-6.377,5.148l-1.036,5.273c-.173.883.055,1.789.626,2.484Z"/>
</svg>
